<?xml version="1.0" encoding="UTF-8"?>
<svg width="1200pt" height="1200pt" version="1.1" viewBox="0 0 1200 1200" xmlns="http://www.w3.org/2000/svg">
 <path d="m577.8 942c94 41.602 181.8 34.199 263.4-22.199 91.199-74.402 127.4-160.2 108.6-257.4-75.199 113.2-171.4 163.4-288.6 150.6-104.8-27.602-171.2-106.4-199.2-236.4-53.199 60.797-64.602 132.4-34.199 214.8 25.199 64.801 75.199 115 150 150.6m-167.4-517.8c-64.797 25.199-115 75.199-150.6 150-41.602 94-34.199 181.8 22.199 263.4 74.398 91.199 160.2 127.4 257.4 108.6-113.2-75.199-163.4-171.4-150.6-288.6 27.598-104.8 106.4-171.2 236.4-199.2-60.801-53.199-132.4-64.598-214.8-34.199m250.8-170.4c113.2 75.199 163.4 171.4 150.6 288.6-27.602 104.8-106.4 171.2-236.4 199.2 60.801 53.199 132.4 64.598 214.8 34.199 64.801-25.199 115-75.199 150.6-150 41.598-94 34.199-181.8-22.199-263.4-74.402-91.199-160.2-127.4-257.4-108.6m110.4 155.4c-25.203-64.801-75.203-115-150-150.6-94-41.602-181.8-34.203-263.4 22.199-91.199 74.398-127.4 160.2-108.6 257.4 75.199-113.2 171.4-163.4 288.6-150.6 104.8 27.598 171.2 106.4 199.2 236.4 53.203-60.801 64.602-132.4 34.203-214.8z"/>
</svg>
